<svg xmlns="http://www.w3.org/2000/svg" xmlns:xlink="http://www.w3.org/1999/xlink" width="3000" zoomAndPan="magnify" viewBox="0 0 2250 1687.499945" height="2250" preserveAspectRatio="xMidYMid meet" version="1.0"><defs><g/><clipPath id="b3f051cfde"><path d="M 0.332031 754 L 2249.664062 754 L 2249.664062 1068 L 0.332031 1068 Z M 0.332031 754 " clip-rule="nonzero"/></clipPath><clipPath id="a46956d521"><rect x="0" width="2250" y="0" height="314"/></clipPath><clipPath id="9270f26067"><path d="M 195 1082.792969 L 2055.5625 1082.792969 L 2055.5625 1665.367188 L 195 1665.367188 Z M 195 1082.792969 " clip-rule="nonzero"/></clipPath></defs><g fill="#f6f4f1" fill-opacity="1"><g transform="translate(29.756192, 739.950643)"><g><path d="M 20.875 0 C 25.507812 -4.175781 29.101562 -12.175781 31.65625 -24 C 34.207031 -35.832031 35.945312 -49.519531 36.875 -65.0625 C 37.800781 -80.601562 38.492188 -96.488281 38.953125 -112.71875 C 39.421875 -128.957031 39.539062 -143.800781 39.3125 -157.25 C 39.082031 -170.707031 38.96875 -181.144531 38.96875 -188.5625 L 38.96875 -536.484375 C 38.96875 -543.898438 39.082031 -554.332031 39.3125 -567.78125 C 39.539062 -581.238281 39.421875 -596.085938 38.953125 -612.328125 C 38.492188 -628.566406 37.800781 -644.453125 36.875 -659.984375 C 35.945312 -675.523438 34.207031 -689.210938 31.65625 -701.046875 C 29.101562 -712.878906 25.507812 -720.878906 20.875 -725.046875 L 178.125 -725.046875 C 173.03125 -720.878906 168.859375 -712.878906 165.609375 -701.046875 C 162.359375 -689.210938 160.035156 -675.523438 158.640625 -659.984375 C 157.253906 -644.453125 156.441406 -628.566406 156.203125 -612.328125 C 155.972656 -596.085938 155.859375 -581.238281 155.859375 -567.78125 C 155.859375 -554.332031 155.859375 -543.898438 155.859375 -536.484375 L 155.859375 -420.96875 C 171.640625 -420.96875 184.75 -427.691406 195.1875 -441.140625 C 205.625 -454.597656 213.972656 -472.226562 220.234375 -494.03125 C 226.492188 -515.832031 231.015625 -539.023438 233.796875 -563.609375 C 236.578125 -588.203125 237.851562 -612.09375 237.625 -635.28125 C 237.394531 -658.476562 235.882812 -678.195312 233.09375 -694.4375 C 230.3125 -710.675781 226.835938 -720.878906 222.671875 -725.046875 L 370.875 -725.046875 C 361.132812 -705.566406 354.875 -683.1875 352.09375 -657.90625 C 349.3125 -632.625 347.335938 -606.414062 346.171875 -579.28125 C 345.015625 -552.144531 342.695312 -525.929688 339.21875 -500.640625 C 335.738281 -475.359375 328.78125 -452.742188 318.34375 -432.796875 C 307.90625 -412.859375 291.785156 -397.550781 269.984375 -386.875 C 287.609375 -386.875 301.988281 -382.117188 313.125 -372.609375 C 324.257812 -363.097656 332.957031 -350.6875 339.21875 -335.375 C 345.476562 -320.070312 350 -303.488281 352.78125 -285.625 C 355.5625 -267.769531 357.300781 -250.257812 358 -233.09375 C 358.695312 -215.9375 359.046875 -201.09375 359.046875 -188.5625 C 359.046875 -181.144531 358.925781 -170.707031 358.6875 -157.25 C 358.457031 -143.800781 358.578125 -128.957031 359.046875 -112.71875 C 359.515625 -96.488281 360.210938 -80.601562 361.140625 -65.0625 C 362.066406 -49.519531 363.804688 -35.832031 366.359375 -24 C 368.910156 -12.175781 372.503906 -4.175781 377.140625 0 L 224.0625 0 C 228.695312 -4.175781 232.289062 -12.175781 234.84375 -24 C 237.394531 -35.832031 239.132812 -49.519531 240.0625 -65.0625 C 240.988281 -80.601562 241.679688 -96.488281 242.140625 -112.71875 C 242.609375 -128.957031 242.722656 -143.800781 242.484375 -157.25 C 242.253906 -170.707031 242.140625 -181.144531 242.140625 -188.5625 C 242.140625 -203.414062 241.789062 -218.492188 241.09375 -233.796875 C 240.40625 -249.109375 237.972656 -263.488281 233.796875 -276.9375 C 229.617188 -290.394531 222.660156 -301.179688 212.921875 -309.296875 C 203.179688 -317.410156 189.035156 -321.46875 170.484375 -321.46875 L 155.859375 -321.46875 L 155.859375 -188.5625 C 155.859375 -181.144531 155.742188 -170.707031 155.515625 -157.25 C 155.285156 -143.800781 155.398438 -128.957031 155.859375 -112.71875 C 156.328125 -96.488281 157.023438 -80.601562 157.953125 -65.0625 C 158.878906 -49.519531 160.617188 -35.832031 163.171875 -24 C 165.722656 -12.175781 169.316406 -4.175781 173.953125 0 Z M 20.875 0 "/></g></g></g><g fill="#f6f4f1" fill-opacity="1"><g transform="translate(420.116938, 739.950643)"><g><path d="M 180.21875 0 L 11.140625 0 C 18.554688 -13.914062 25.160156 -31.660156 30.953125 -53.234375 C 36.753906 -74.804688 41.972656 -97.070312 46.609375 -120.03125 C 51.253906 -142.988281 54.96875 -163.285156 57.75 -180.921875 C 67.03125 -233.796875 75.613281 -282.5 83.5 -327.03125 C 91.382812 -371.570312 99.15625 -414.597656 106.8125 -456.109375 C 114.46875 -497.628906 122.238281 -540.191406 130.125 -583.796875 C 138.007812 -627.398438 146.359375 -674.484375 155.171875 -725.046875 L 299.90625 -725.046875 C 308.71875 -674.484375 316.945312 -627.398438 324.59375 -583.796875 C 332.25 -540.191406 339.785156 -497.628906 347.203125 -456.109375 C 354.628906 -414.597656 362.398438 -371.570312 370.515625 -327.03125 C 378.640625 -282.5 387.570312 -233.796875 397.3125 -180.921875 C 400.5625 -163.285156 404.390625 -142.988281 408.796875 -120.03125 C 413.203125 -97.070312 418.421875 -74.804688 424.453125 -53.234375 C 430.484375 -31.660156 436.976562 -13.914062 443.9375 0 L 274.859375 0 C 281.347656 -15.769531 284.941406 -32.703125 285.640625 -50.796875 C 286.335938 -68.890625 285.753906 -87.328125 283.890625 -106.109375 C 282.035156 -124.898438 279.953125 -142.644531 277.640625 -159.34375 L 177.4375 -159.34375 C 175.582031 -142.644531 173.609375 -124.898438 171.515625 -106.109375 C 169.429688 -87.328125 168.738281 -68.890625 169.4375 -50.796875 C 170.132812 -32.703125 173.726562 -15.769531 180.21875 0 Z M 189.96875 -259.546875 L 265.109375 -259.546875 L 227.53125 -567.09375 Z M 189.96875 -259.546875 "/></g></g></g><g fill="#f6f4f1" fill-opacity="1"><g transform="translate(875.189768, 739.950643)"><g><path d="M 20.875 -725.046875 L 171.875 -725.046875 C 167.226562 -720.878906 163.628906 -712.878906 161.078125 -701.046875 C 158.523438 -689.210938 156.785156 -675.523438 155.859375 -659.984375 C 154.929688 -644.453125 154.234375 -628.566406 153.765625 -612.328125 C 153.304688 -596.085938 153.191406 -581.238281 153.421875 -567.78125 C 153.660156 -554.332031 153.78125 -543.898438 153.78125 -536.484375 L 153.78125 -188.5625 C 153.78125 -181.144531 153.660156 -170.707031 153.421875 -157.25 C 153.191406 -143.800781 153.304688 -128.957031 153.765625 -112.71875 C 154.234375 -96.488281 154.929688 -80.601562 155.859375 -65.0625 C 156.785156 -49.519531 158.523438 -35.832031 161.078125 -24 C 163.628906 -12.175781 167.226562 -4.175781 171.875 0 L 20.875 0 C 25.507812 -4.175781 29.101562 -12.175781 31.65625 -24 C 34.207031 -35.832031 35.945312 -49.519531 36.875 -65.0625 C 37.800781 -80.601562 38.492188 -96.488281 38.953125 -112.71875 C 39.421875 -128.957031 39.539062 -143.800781 39.3125 -157.25 C 39.082031 -170.707031 38.96875 -181.144531 38.96875 -188.5625 L 38.96875 -536.484375 C 38.96875 -543.898438 39.082031 -554.332031 39.3125 -567.78125 C 39.539062 -581.238281 39.421875 -596.085938 38.953125 -612.328125 C 38.492188 -628.566406 37.800781 -644.453125 36.875 -659.984375 C 35.945312 -675.523438 34.207031 -689.210938 31.65625 -701.046875 C 29.101562 -712.878906 25.507812 -720.878906 20.875 -725.046875 Z M 20.875 -725.046875 "/></g></g></g><g fill="#f6f4f1" fill-opacity="1"><g transform="translate(1067.934649, 739.950643)"><g><path d="M 13.921875 -104.375 L 228.921875 -624.859375 L 187.875 -624.859375 C 164.675781 -624.859375 145.070312 -624.738281 129.0625 -624.5 C 113.0625 -624.269531 97.753906 -622.765625 83.140625 -619.984375 C 68.535156 -617.203125 51.257812 -611.632812 31.3125 -603.28125 L 31.3125 -725.046875 L 355.5625 -725.046875 L 355.5625 -624.859375 L 138.46875 -100.203125 L 200.40625 -100.203125 C 223.59375 -100.203125 243.1875 -100.316406 259.1875 -100.546875 C 275.195312 -100.773438 290.625 -102.394531 305.46875 -105.40625 C 320.3125 -108.425781 337.472656 -113.878906 356.953125 -121.765625 L 356.953125 0 L 13.921875 0 Z M 13.921875 -104.375 "/></g></g></g><g fill="#f6f4f1" fill-opacity="1"><g transform="translate(1438.812067, 739.950643)"><g><path d="M 38.96875 -536.484375 C 38.96875 -543.898438 39.082031 -554.332031 39.3125 -567.78125 C 39.539062 -581.238281 39.421875 -596.085938 38.953125 -612.328125 C 38.492188 -628.566406 37.800781 -644.453125 36.875 -659.984375 C 35.945312 -675.523438 34.207031 -689.210938 31.65625 -701.046875 C 29.101562 -712.878906 25.507812 -720.878906 20.875 -725.046875 L 332.609375 -725.046875 L 332.609375 -602.59375 C 314.046875 -610.9375 298.039062 -616.734375 284.59375 -619.984375 C 271.144531 -623.234375 257.34375 -624.972656 243.1875 -625.203125 C 229.039062 -625.429688 210.832031 -625.546875 188.5625 -625.546875 L 155.859375 -625.546875 L 155.859375 -468.984375 L 215.703125 -468.984375 C 236.117188 -468.984375 252.820312 -470.488281 265.8125 -473.5 C 278.800781 -476.519531 292.019531 -481.742188 305.46875 -489.171875 L 305.46875 -347.921875 C 292.019531 -355.335938 278.800781 -360.664062 265.8125 -363.90625 C 252.820312 -367.15625 236.117188 -368.78125 215.703125 -368.78125 L 155.859375 -368.78125 L 155.859375 -100.203125 L 188.5625 -100.203125 C 210.832031 -100.203125 229.039062 -100.316406 243.1875 -100.546875 C 257.34375 -100.773438 271.144531 -102.394531 284.59375 -105.40625 C 298.039062 -108.425781 314.046875 -114.113281 332.609375 -122.46875 L 332.609375 0 L 20.875 0 C 25.507812 -4.175781 29.101562 -12.175781 31.65625 -24 C 34.207031 -35.832031 35.945312 -49.519531 36.875 -65.0625 C 37.800781 -80.601562 38.492188 -96.488281 38.953125 -112.71875 C 39.421875 -128.957031 39.539062 -143.800781 39.3125 -157.25 C 39.082031 -170.707031 38.96875 -181.144531 38.96875 -188.5625 Z M 38.96875 -536.484375 "/></g></g></g><g fill="#f6f4f1" fill-opacity="1"><g transform="translate(1785.335435, 739.950643)"><g><path d="M 20.875 -725.046875 L 156.5625 -725.046875 L 279.03125 -263.015625 C 279.03125 -263.015625 279.03125 -268.8125 279.03125 -280.40625 C 279.03125 -292.007812 279.144531 -307.203125 279.375 -325.984375 C 279.601562 -344.773438 279.71875 -364.957031 279.71875 -386.53125 C 279.71875 -408.101562 279.832031 -429.328125 280.0625 -450.203125 C 280.300781 -471.078125 280.421875 -489.285156 280.421875 -504.828125 C 280.421875 -520.367188 280.421875 -531.148438 280.421875 -537.171875 C 280.421875 -544.597656 280.421875 -555.035156 280.421875 -568.484375 C 280.421875 -581.941406 280.300781 -596.785156 280.0625 -613.015625 C 279.832031 -629.253906 279.140625 -645.144531 277.984375 -660.6875 C 276.828125 -676.226562 274.972656 -689.910156 272.421875 -701.734375 C 269.867188 -713.566406 266.503906 -721.570312 262.328125 -725.75 L 414.015625 -725.046875 C 409.835938 -720.878906 406.472656 -712.878906 403.921875 -701.046875 C 401.367188 -689.210938 399.515625 -675.523438 398.359375 -659.984375 C 397.203125 -644.453125 396.503906 -628.566406 396.265625 -612.328125 C 396.035156 -596.085938 395.921875 -581.238281 395.921875 -567.78125 C 395.921875 -554.332031 395.921875 -543.898438 395.921875 -536.484375 L 395.921875 -188.5625 C 395.921875 -181.144531 395.921875 -170.707031 395.921875 -157.25 C 395.921875 -143.800781 396.035156 -128.957031 396.265625 -112.71875 C 396.503906 -96.488281 397.203125 -80.601562 398.359375 -65.0625 C 399.515625 -49.519531 401.367188 -35.832031 403.921875 -24 C 406.472656 -12.175781 409.835938 -4.175781 414.015625 0 L 276.9375 0 L 154.46875 -437.671875 C 154.46875 -437.671875 154.46875 -432.453125 154.46875 -422.015625 C 154.46875 -411.578125 154.46875 -398.007812 154.46875 -381.3125 C 154.46875 -364.613281 154.582031 -346.40625 154.8125 -326.6875 C 155.050781 -306.976562 155.171875 -287.726562 155.171875 -268.9375 C 155.171875 -250.144531 155.171875 -233.554688 155.171875 -219.171875 C 155.171875 -204.796875 155.171875 -194.59375 155.171875 -188.5625 C 155.171875 -181.144531 155.050781 -170.707031 154.8125 -157.25 C 154.582031 -143.800781 154.582031 -128.957031 154.8125 -112.71875 C 155.050781 -96.488281 155.75 -80.601562 156.90625 -65.0625 C 158.070312 -49.519531 159.925781 -35.832031 162.46875 -24 C 165.019531 -12.175781 168.382812 -4.175781 172.5625 0 L 21.578125 0 C 25.742188 -4.175781 29.101562 -12.175781 31.65625 -24 C 34.207031 -35.832031 36.0625 -49.519531 37.21875 -65.0625 C 38.382812 -80.601562 39.082031 -96.488281 39.3125 -112.71875 C 39.539062 -128.957031 39.539062 -143.800781 39.3125 -157.25 C 39.082031 -170.707031 38.96875 -181.144531 38.96875 -188.5625 L 38.96875 -536.484375 C 38.96875 -543.898438 39.082031 -554.332031 39.3125 -567.78125 C 39.539062 -581.238281 39.421875 -596.085938 38.953125 -612.328125 C 38.492188 -628.566406 37.800781 -644.453125 36.875 -659.984375 C 35.945312 -675.523438 34.207031 -689.210938 31.65625 -701.046875 C 29.101562 -712.878906 25.507812 -720.878906 20.875 -725.046875 Z M 20.875 -725.046875 "/></g></g></g><g clip-path="url(#b3f051cfde)"><g transform="matrix(1, 0, 0, 1, 0, 754)"><g clip-path="url(#a46956d521)"><g fill="#f6f4f1" fill-opacity="1"><g transform="translate(-3.205974, 252.55448)"><g><path d="M 104.015625 -200.578125 C 129.222656 -200.578125 149.945312 -195.460938 166.1875 -185.234375 C 182.425781 -175.015625 190.734375 -159.878906 191.109375 -139.828125 L 191.109375 -136.390625 L 131.796875 -136.390625 L 131.796875 -137.53125 C 131.796875 -143.257812 129.695312 -148.035156 125.5 -151.859375 C 121.300781 -155.679688 114.898438 -157.59375 106.296875 -157.59375 C 97.898438 -157.59375 91.457031 -156.347656 86.96875 -153.859375 C 82.476562 -151.378906 80.234375 -148.328125 80.234375 -144.703125 C 80.234375 -139.546875 83.285156 -135.722656 89.390625 -133.234375 C 95.503906 -130.753906 105.34375 -128.175781 118.90625 -125.5 C 134.757812 -122.25 147.796875 -118.859375 158.015625 -115.328125 C 168.234375 -111.796875 177.164062 -106.015625 184.8125 -97.984375 C 192.457031 -89.960938 196.375 -79.078125 196.5625 -65.328125 C 196.5625 -42.023438 188.679688 -24.738281 172.921875 -13.46875 C 157.160156 -2.195312 136.097656 3.4375 109.734375 3.4375 C 78.984375 3.4375 55.0625 -1.71875 37.96875 -12.03125 C 20.875 -22.34375 12.328125 -40.585938 12.328125 -66.765625 L 72.203125 -66.765625 C 72.203125 -56.828125 74.78125 -50.1875 79.9375 -46.84375 C 85.09375 -43.5 93.117188 -41.828125 104.015625 -41.828125 C 112.035156 -41.828125 118.671875 -42.6875 123.921875 -44.40625 C 129.171875 -46.125 131.796875 -49.660156 131.796875 -55.015625 C 131.796875 -59.785156 128.882812 -63.363281 123.0625 -65.75 C 117.238281 -68.144531 107.738281 -70.679688 94.5625 -73.359375 C 78.507812 -76.796875 65.226562 -80.375 54.71875 -84.09375 C 44.21875 -87.820312 35.050781 -93.984375 27.21875 -102.578125 C 19.382812 -111.171875 15.46875 -122.820312 15.46875 -137.53125 C 15.46875 -159.113281 23.820312 -175.015625 40.53125 -185.234375 C 57.25 -195.460938 78.410156 -200.578125 104.015625 -200.578125 Z M 104.015625 -200.578125 "/></g></g></g><g fill="#f6f4f1" fill-opacity="1"><g transform="translate(203.665982, 252.55448)"><g><path d="M 134.671875 -146.703125 L 134.671875 0 L 71.34375 0 L 71.34375 -146.703125 L 6.59375 -146.703125 L 6.59375 -197.140625 L 199.140625 -197.140625 L 199.140625 -146.703125 Z M 134.671875 -146.703125 "/></g></g></g><g fill="#f6f4f1" fill-opacity="1"><g transform="translate(410.537937, 252.55448)"><g><path d="M 208.3125 -136.671875 C 208.3125 -124.640625 205.0625 -113.75 198.5625 -104 C 192.070312 -94.257812 182.617188 -87.097656 170.203125 -82.515625 L 214.03125 0 L 142.984375 0 L 108.015625 -71.921875 L 84.53125 -71.921875 L 84.53125 0 L 21.203125 0 L 21.203125 -197.140625 L 141.828125 -197.140625 C 155.960938 -197.140625 168.046875 -194.414062 178.078125 -188.96875 C 188.109375 -183.519531 195.65625 -176.160156 200.71875 -166.890625 C 205.78125 -157.628906 208.3125 -147.554688 208.3125 -136.671875 Z M 143.84375 -134.09375 C 143.84375 -139.25 142.125 -143.546875 138.6875 -146.984375 C 135.25 -150.421875 131.046875 -152.140625 126.078125 -152.140625 L 84.53125 -152.140625 L 84.53125 -115.765625 L 126.078125 -115.765625 C 131.046875 -115.765625 135.25 -117.53125 138.6875 -121.0625 C 142.125 -124.59375 143.84375 -128.9375 143.84375 -134.09375 Z M 143.84375 -134.09375 "/></g></g></g><g fill="#f6f4f1" fill-opacity="1"><g transform="translate(633.455427, 252.55448)"><g><path d="M 153.296875 0 L 144.984375 -27.796875 L 75.9375 -27.796875 L 67.625 0 L 2.859375 0 L 74.78125 -197.140625 L 148.421875 -197.140625 L 220.34375 0 Z M 89.109375 -71.921875 L 131.796875 -71.921875 L 111.171875 -142.125 L 110.03125 -142.125 Z M 89.109375 -71.921875 "/></g></g></g><g fill="#f6f4f1" fill-opacity="1"><g transform="translate(836.602501, 252.55448)"><g><path d="M 134.671875 -146.703125 L 134.671875 0 L 71.34375 0 L 71.34375 -146.703125 L 6.59375 -146.703125 L 6.59375 -197.140625 L 199.140625 -197.140625 L 199.140625 -146.703125 Z M 134.671875 -146.703125 "/></g></g></g><g fill="#f6f4f1" fill-opacity="1"><g transform="translate(1043.474456, 252.55448)"><g><path d="M 21.203125 -197.140625 L 191.6875 -197.140625 L 191.6875 -149.859375 L 84.53125 -149.859375 L 84.53125 -122.640625 L 176.21875 -122.640625 L 176.21875 -77.359375 L 84.53125 -77.359375 L 84.53125 -47.28125 L 193.6875 -47.28125 L 193.6875 0 L 21.203125 0 Z M 21.203125 -197.140625 "/></g></g></g><g fill="#f6f4f1" fill-opacity="1"><g transform="translate(1250.346412, 252.55448)"><g><path d="M 120.34375 -200.578125 C 139.25 -200.578125 156.25 -197.707031 171.34375 -191.96875 C 186.4375 -186.238281 198.421875 -177.785156 207.296875 -166.609375 C 216.179688 -155.441406 220.625 -141.832031 220.625 -125.78125 L 160.171875 -125.78125 C 160.171875 -134 156.539062 -140.640625 149.28125 -145.703125 C 142.019531 -150.765625 133.234375 -153.296875 122.921875 -153.296875 C 108.023438 -153.296875 96.753906 -149.332031 89.109375 -141.40625 C 81.472656 -133.476562 77.65625 -122.253906 77.65625 -107.734375 L 77.65625 -89.390625 C 77.65625 -74.878906 81.472656 -63.660156 89.109375 -55.734375 C 96.753906 -47.804688 108.023438 -43.84375 122.921875 -43.84375 C 133.234375 -43.84375 142.019531 -46.273438 149.28125 -51.140625 C 156.539062 -56.015625 160.171875 -62.269531 160.171875 -69.90625 L 115.46875 -69.90625 L 115.46875 -110.03125 L 220.625 -110.03125 L 220.625 0 L 187.96875 0 L 181.65625 -19.484375 C 163.707031 -4.203125 140.210938 3.4375 111.171875 3.4375 C 78.503906 3.4375 53.957031 -5.109375 37.53125 -22.203125 C 21.101562 -39.296875 12.890625 -64.75 12.890625 -98.5625 C 12.890625 -131.988281 22.203125 -157.347656 40.828125 -174.640625 C 59.453125 -191.929688 85.957031 -200.578125 120.34375 -200.578125 Z M 120.34375 -200.578125 "/></g></g></g><g fill="#f6f4f1" fill-opacity="1"><g transform="translate(1489.022858, 252.55448)"><g><path d="M 24.0625 0 L 24.0625 -197.140625 L 87.390625 -197.140625 L 87.390625 0 Z M 24.0625 0 "/></g></g></g><g fill="#f6f4f1" fill-opacity="1"><g transform="translate(1600.481552, 252.55448)"><g><path d="M 115.1875 -200.578125 C 144.414062 -200.578125 167.53125 -193.269531 184.53125 -178.65625 C 201.53125 -164.039062 210.03125 -143.171875 210.03125 -116.046875 L 149.5625 -116.046875 C 149.5625 -127.503906 146.550781 -136.578125 140.53125 -143.265625 C 134.519531 -149.953125 125.976562 -153.296875 114.90625 -153.296875 C 102.101562 -153.296875 92.691406 -149.28125 86.671875 -141.25 C 80.660156 -133.226562 77.65625 -122.054688 77.65625 -107.734375 L 77.65625 -89.390625 C 77.65625 -75.253906 80.660156 -64.128906 86.671875 -56.015625 C 92.691406 -47.898438 101.910156 -43.84375 114.328125 -43.84375 C 126.546875 -43.84375 135.804688 -46.992188 142.109375 -53.296875 C 148.421875 -59.597656 151.578125 -68.476562 151.578125 -79.9375 L 210.03125 -79.9375 C 210.03125 -53.007812 201.765625 -32.378906 185.234375 -18.046875 C 168.710938 -3.722656 145.363281 3.4375 115.1875 3.4375 C 81.5625 3.4375 56.101562 -5.15625 38.8125 -22.34375 C 21.53125 -39.539062 12.890625 -64.945312 12.890625 -98.5625 C 12.890625 -132.1875 21.53125 -157.59375 38.8125 -174.78125 C 56.101562 -191.976562 81.5625 -200.578125 115.1875 -200.578125 Z M 115.1875 -200.578125 "/></g></g></g><g fill="#f6f4f1" fill-opacity="1"><g transform="translate(1823.398939, 252.55448)"><g/></g></g><g fill="#f6f4f1" fill-opacity="1"><g transform="translate(1918.812307, 252.55448)"><g><path d="M 153.296875 0 L 144.984375 -27.796875 L 75.9375 -27.796875 L 67.625 0 L 2.859375 0 L 74.78125 -197.140625 L 148.421875 -197.140625 L 220.34375 0 Z M 89.109375 -71.921875 L 131.796875 -71.921875 L 111.171875 -142.125 L 110.03125 -142.125 Z M 89.109375 -71.921875 "/></g></g></g><g fill="#f6f4f1" fill-opacity="1"><g transform="translate(2141.729694, 252.55448)"><g><path d="M 24.0625 0 L 24.0625 -197.140625 L 87.390625 -197.140625 L 87.390625 0 Z M 24.0625 0 "/></g></g></g></g></g></g><g clip-path="url(#9270f26067)"><path fill="#f6f4f1" d="M 480.984375 1552.773438 C 376.207031 1503.988281 314.105469 1442.132812 314.105469 1373.921875 C 314.105469 1305.710938 376.207031 1243.855469 480.984375 1195.070312 C 324.042969 1242.714844 227.066406 1306.058594 227.066406 1373.921875 C 227.066406 1441.785156 323.992188 1505.078125 480.984375 1552.773438 M 1769.511719 1195.121094 C 1874.289062 1243.90625 1936.390625 1305.757812 1936.390625 1373.921875 C 1936.390625 1442.082031 1874.289062 1503.988281 1769.511719 1552.722656 C 1926.453125 1505.078125 2023.429688 1441.785156 2023.429688 1373.921875 C 2023.429688 1306.058594 1926.453125 1242.765625 1769.511719 1195.121094 Z M 560.824219 1551.234375 C 470.703125 1502.59375 417.394531 1441.289062 417.394531 1373.921875 C 417.394531 1306.554688 470.75 1245.246094 560.824219 1196.609375 C 427.726562 1243.855469 345.753906 1306.554688 345.753906 1373.921875 C 345.753906 1441.289062 427.726562 1503.988281 560.824219 1551.234375 Z M 1689.671875 1196.609375 C 1779.792969 1245.246094 1833.101562 1306.554688 1833.101562 1373.921875 C 1833.101562 1441.289062 1779.746094 1502.59375 1689.671875 1551.234375 C 1822.769531 1503.988281 1904.742188 1441.289062 1904.742188 1373.921875 C 1904.742188 1306.554688 1822.769531 1243.855469 1689.671875 1196.609375 Z M 629.480469 1548.996094 C 552.675781 1500.609375 507.265625 1440.144531 507.265625 1373.921875 C 507.265625 1307.695312 552.625 1247.234375 629.480469 1198.847656 C 517.648438 1245.644531 449.039062 1307.398438 449.039062 1373.921875 C 449.039062 1440.445312 517.648438 1502.199219 629.480469 1548.996094 Z M 1621.015625 1198.847656 C 1697.820312 1247.234375 1743.230469 1307.695312 1743.230469 1373.921875 C 1743.230469 1440.144531 1697.871094 1500.609375 1621.015625 1548.996094 C 1732.847656 1502.199219 1801.457031 1440.445312 1801.457031 1373.921875 C 1801.457031 1307.398438 1732.847656 1245.644531 1621.015625 1198.847656 Z M 688.402344 1545.917969 C 623.621094 1497.976562 585.464844 1438.605469 585.464844 1373.921875 C 585.464844 1309.238281 623.621094 1249.917969 688.402344 1201.925781 C 595.550781 1248.179688 538.914062 1308.640625 538.914062 1373.921875 C 538.914062 1439.203125 595.550781 1499.664062 688.402344 1545.917969 Z M 1562.09375 1201.925781 C 1626.875 1249.867188 1665.03125 1309.238281 1665.03125 1373.921875 C 1665.03125 1438.605469 1626.875 1497.925781 1562.09375 1545.917969 C 1654.945312 1499.664062 1711.582031 1439.203125 1711.582031 1373.921875 C 1711.582031 1308.640625 1654.945312 1248.179688 1562.09375 1201.925781 Z M 738.828125 1541.59375 C 685.023438 1494.296875 653.527344 1436.570312 653.527344 1373.921875 C 653.527344 1311.273438 685.023438 1253.542969 738.828125 1206.25 C 663.015625 1251.804688 617.109375 1310.480469 617.109375 1373.921875 C 617.109375 1437.363281 663.015625 1496.039062 738.828125 1541.59375 Z M 1511.667969 1206.25 C 1565.472656 1253.496094 1596.96875 1311.273438 1596.96875 1373.921875 C 1596.96875 1436.570312 1565.472656 1494.347656 1511.667969 1541.59375 C 1587.480469 1496.039062 1633.386719 1437.363281 1633.386719 1373.921875 C 1633.386719 1310.480469 1587.480469 1251.804688 1511.667969 1206.25 Z M 781.902344 1535.683594 C 738.183594 1489.480469 712.746094 1433.886719 712.746094 1373.921875 C 712.746094 1313.957031 738.183594 1258.363281 781.902344 1212.160156 C 721.441406 1256.675781 685.175781 1313.0625 685.175781 1373.921875 C 685.175781 1434.78125 721.441406 1491.117188 781.902344 1535.683594 Z M 1468.59375 1212.160156 C 1512.3125 1258.363281 1537.75 1313.957031 1537.75 1373.921875 C 1537.75 1433.886719 1512.3125 1489.480469 1468.59375 1535.683594 C 1529.054688 1491.167969 1565.320312 1434.78125 1565.320312 1373.921875 C 1565.320312 1313.0625 1529.054688 1256.722656 1468.59375 1212.160156 Z M 818.121094 1527.136719 C 783.941406 1482.625 764.265625 1430.160156 764.265625 1373.921875 C 764.265625 1317.632812 783.988281 1265.171875 818.121094 1220.707031 C 771.816406 1263.730469 744.394531 1316.738281 744.394531 1373.921875 C 744.394531 1431.105469 771.816406 1484.113281 818.121094 1527.136719 Z M 1432.375 1220.707031 C 1466.554688 1265.171875 1486.230469 1317.683594 1486.230469 1373.921875 C 1486.230469 1430.210938 1466.507812 1482.671875 1432.375 1527.136719 C 1478.679688 1484.113281 1506.101562 1431.105469 1506.101562 1373.921875 C 1506.101562 1316.738281 1478.679688 1263.730469 1432.375 1220.707031 Z M 847.878906 1513.824219 C 823.136719 1472.289062 809.078125 1424.644531 809.078125 1373.921875 C 809.078125 1323.199219 823.136719 1275.554688 847.878906 1234.019531 C 814.992188 1274.410156 795.914062 1322.453125 795.914062 1373.921875 C 795.914062 1425.390625 814.992188 1473.433594 847.878906 1513.824219 Z M 1402.617188 1234.019531 C 1427.359375 1275.554688 1441.417969 1323.199219 1441.417969 1373.921875 C 1441.417969 1424.644531 1427.359375 1472.289062 1402.617188 1513.824219 C 1435.503906 1473.433594 1454.582031 1425.390625 1454.582031 1373.921875 C 1454.582031 1322.453125 1435.503906 1274.410156 1402.617188 1234.019531 Z M 871.925781 1492.261719 C 856.574219 1456.09375 848.078125 1416.050781 848.078125 1373.921875 C 848.078125 1331.792969 856.621094 1291.75 871.925781 1255.582031 C 851.953125 1291.054688 840.726562 1331.296875 840.726562 1373.921875 C 840.726562 1416.546875 852.003906 1456.738281 871.925781 1492.261719 Z M 1378.570312 1255.582031 C 1393.921875 1291.75 1402.417969 1331.792969 1402.417969 1373.921875 C 1402.417969 1416.050781 1393.871094 1456.09375 1378.570312 1492.261719 C 1398.542969 1456.789062 1409.769531 1416.546875 1409.769531 1373.921875 C 1409.769531 1331.296875 1398.492188 1291.101562 1378.570312 1255.582031 Z M 1273.84375 1189.257812 C 1235.640625 1142.953125 1183.078125 1114.339844 1125.25 1114.339844 C 1067.417969 1114.339844 1014.855469 1142.953125 976.652344 1189.257812 C 937.753906 1236.355469 913.707031 1301.636719 913.707031 1373.921875 C 913.707031 1446.207031 937.753906 1511.488281 976.652344 1558.585938 C 1014.855469 1604.886719 1067.417969 1633.503906 1125.25 1633.503906 C 1183.078125 1633.503906 1235.640625 1604.886719 1273.84375 1558.585938 C 1312.742188 1511.488281 1336.789062 1446.207031 1336.789062 1373.921875 C 1336.839844 1301.636719 1312.742188 1236.355469 1273.84375 1189.257812 Z M 890.257812 1449.4375 C 884.890625 1425.339844 882.011719 1400.003906 882.011719 1373.921875 C 882.011719 1347.789062 884.890625 1322.5 890.257812 1298.40625 C 883.402344 1322.304688 879.726562 1347.640625 879.726562 1373.921875 C 879.726562 1400.203125 883.402344 1425.539062 890.257812 1449.4375 Z M 1360.1875 1298.355469 C 1365.605469 1322.453125 1368.4375 1347.789062 1368.4375 1373.921875 C 1368.4375 1400.054688 1365.554688 1425.390625 1360.1875 1449.488281 C 1367.046875 1425.589844 1370.773438 1400.203125 1370.773438 1373.921875 C 1370.773438 1347.640625 1367.09375 1322.253906 1360.1875 1298.355469 Z M 1125.25 1082.691406 C 1379.167969 1082.691406 1609.289062 1113.792969 1776.070312 1164.019531 C 1948.460938 1215.9375 2055.078125 1290.011719 2055.078125 1373.921875 C 2055.078125 1457.78125 1948.460938 1531.859375 1776.070312 1583.824219 C 1609.289062 1634.101562 1379.167969 1665.152344 1125.25 1665.152344 C 871.328125 1665.152344 641.207031 1634.050781 474.425781 1583.824219 C 302.035156 1531.859375 195.417969 1457.78125 195.417969 1373.921875 C 195.417969 1290.058594 302.035156 1215.984375 474.425781 1164.019531 C 641.207031 1113.792969 871.328125 1082.691406 1125.25 1082.691406 Z M 1125.25 1082.691406 " fill-opacity="1" fill-rule="nonzero"/></g></svg>